HIERARCHY
ROOT joint_Root
{
	OFFSET 0.0 0.0 0.0
	CHANNELS 6 Xposition Yposition Zposition Zrotation Xrotation Yrotation 
	JOINT Hips
	{
		OFFSET 4.5925 91.4895 -427.239
		CHANNELS 6 Xposition Yposition Zposition Zrotation Xrotation Yrotation 
		JOINT Spine
		{
			OFFSET 15.7357 0.0 0.0
			CHANNELS 6 Xposition Yposition Zposition Zrotation Xrotation Yrotation 
			JOINT Chest
			{
				OFFSET 8.98455 -0.406207 0.0
				CHANNELS 6 Xposition Yposition Zposition Zrotation Xrotation Yrotation 
				JOINT Neck
				{
					OFFSET 16.3773 0.0 0.0
					CHANNELS 6 Xposition Yposition Zposition Zrotation Xrotation Yrotation 
					JOINT Head
					{
						OFFSET 6.45672 0.0 0.0
						CHANNELS 6 Xposition Yposition Zposition Zrotation Xrotation Yrotation 
						End Site
						{
							OFFSET 0.0 0.0 0.0
						}
					}
				}
				JOINT Shoulder_L
				{
					OFFSET 12.9942 -0.242716 4.98039
					CHANNELS 6 Xposition Yposition Zposition Zrotation Xrotation Yrotation 
					JOINT UpperArm_L
					{
						OFFSET 5.34809 0.0 0.0
						CHANNELS 6 Xposition Yposition Zposition Zrotation Xrotation Yrotation 
						JOINT LowerArm_L
						{
							OFFSET 24.3286 1.87007e-05 0.0
							CHANNELS 6 Xposition Yposition Zposition Zrotation Xrotation Yrotation 
							JOINT Hand_L
							{
								OFFSET 22.2916 0.0 0.0
								CHANNELS 6 Xposition Yposition Zposition Zrotation Xrotation Yrotation 
								End Site
								{
									OFFSET 0.0 0.0 0.0
								}
							}
						}
					}
				}
				JOINT Shoulder_R
				{
					OFFSET 12.9945 -0.242716 -4.98039
					CHANNELS 6 Xposition Yposition Zposition Zrotation Xrotation Yrotation 
					JOINT UpperArm_R
					{
						OFFSET -5.34813 0.0 0.0
						CHANNELS 6 Xposition Yposition Zposition Zrotation Xrotation Yrotation 
						JOINT LowerArm_R
						{
							OFFSET -24.3289 0.000322201 0.0
							CHANNELS 6 Xposition Yposition Zposition Zrotation Xrotation Yrotation 
							JOINT Hand_R
							{
								OFFSET -22.2915 -0.000108084 0.0
								CHANNELS 6 Xposition Yposition Zposition Zrotation Xrotation Yrotation 
								End Site
								{
									OFFSET 0.0 0.0 0.0
								}
							}
						}
					}
				}
			}
		}
		JOINT UpperLeg_L
		{
			OFFSET -2.19248 -6.46944 0.0
			CHANNELS 6 Xposition Yposition Zposition Zrotation Xrotation Yrotation 
			JOINT LowerLeg_L
			{
				OFFSET 39.0811 0.0 -1.23785e-05
				CHANNELS 6 Xposition Yposition Zposition Zrotation Xrotation Yrotation 
				JOINT Foot_L
				{
					OFFSET 40.9854 0.0 -1.26872e-05
					CHANNELS 6 Xposition Yposition Zposition Zrotation Xrotation Yrotation 
					JOINT Toes_L
					{
						OFFSET 11.7543 0.0 0.0
						CHANNELS 6 Xposition Yposition Zposition Zrotation Xrotation Yrotation 
						End Site
						{
							OFFSET 0.0 0.0 0.0
						}
					}
				}
			}
		}
		JOINT UpperLeg_R
		{
			OFFSET -2.19251 6.46944 0.0
			CHANNELS 6 Xposition Yposition Zposition Zrotation Xrotation Yrotation 
			JOINT LowerLeg_R
			{
				OFFSET -39.0811 -0.00228153 -0.0401928
				CHANNELS 6 Xposition Yposition Zposition Zrotation Xrotation Yrotation 
				JOINT Foot_R
				{
					OFFSET -40.9854 0.0 0.0
					CHANNELS 6 Xposition Yposition Zposition Zrotation Xrotation Yrotation 
					JOINT Toes_R
					{
						OFFSET -11.7543 0.0 0.0
						CHANNELS 6 Xposition Yposition Zposition Zrotation Xrotation Yrotation 
						End Site
						{
							OFFSET 0.0 0.0 0.0
						}
					}
				}
			}
		}
	}
}
MOTION
Frames:	6
Frame Time:	0.0333333
0.000000 0.000000 0.000000 0.000000 0.000000 -0.000000 -1.834930 90.866000 -2.738420 88.660900 -1.401880 11.463200 15.735700 0.000005 -0.000001 89.407900 77.681700 -89.404300 8.984550 -0.406207 -0.000000 16.869400 -0.250157 0.044261 16.377300 -0.000001 -0.000001 7.796730 -3.092040 1.469900 6.456720 -0.000001 -0.000000 -7.356290 -2.788870 2.562780 12.994200 -0.242716 4.980390 -91.078900 6.120130 -79.982300 5.348090 -0.000007 -0.000001 -62.031500 30.679800 -25.097900 24.328600 0.000019 0.000005 12.372000 24.875700 -27.540100 22.291600 -0.000001 0.000005 9.665260 5.258240 1.213930 12.994500 -0.242716 -4.980390 89.057800 10.000700 -84.590100 -5.348130 -0.000001 -0.000004 -56.553000 35.735000 -23.428700 -24.328900 0.000322 -0.000009 2.849450 6.739520 -22.990600 -22.291500 -0.000108 -0.000004 18.688300 5.425000 -3.768380 -2.192480 -6.469440 -0.000000 -172.058000 -14.098700 -1.336760 39.081100 -0.000007 -0.000012 -0.178689 0.289162 31.714500 40.985400 -0.000006 -0.000013 -0.774969 5.854040 -68.190900 11.754300 -0.000000 0.000003 -0.000189 -0.001766 -16.644300 -2.192510 6.469440 -0.000001 174.143000 24.868900 -178.804000 -39.081100 -0.002282 -0.040193 -0.196554 0.342531 30.262400 -40.985400 0.000008 0.000006 4.442740 15.267100 -69.337200 -11.754300 -0.000006 -0.000006 -0.002438 -0.034067 -17.958400
0.000000 0.000000 0.000000 0.000000 0.000000 -0.000000 -1.848130 90.861000 -2.739650 88.690000 -1.396900 11.485400 15.735700 0.000005 -0.000001 89.429700 77.661200 -89.431600 8.984550 -0.406207 -0.000000 16.910400 -0.241782 0.032021 16.377300 -0.000001 -0.000001 7.833090 -3.131110 1.492560 6.456720 -0.000001 -0.000000 -7.420380 -2.832210 2.558110 12.994200 -0.242716 4.980390 -91.081300 6.107100 -79.940000 5.348090 -0.000007 -0.000001 -62.002300 30.304500 -25.073200 24.328600 0.000019 0.000005 12.697200 24.526400 -28.491400 22.291600 -0.000001 0.000005 9.813750 5.263330 1.077990 12.994500 -0.242716 -4.980390 89.053000 10.011500 -84.568400 -5.348130 -0.000001 -0.000004 -56.530800 35.723100 -23.456500 -24.328900 0.000322 -0.000009 2.854350 6.747640 -23.001300 -22.291500 -0.000108 -0.000004 18.697900 5.423640 -3.722210 -2.192480 -6.469440 -0.000000 -172.084000 -14.090700 -1.334310 39.081100 -0.000007 -0.000012 -0.177031 0.286351 31.726000 40.985400 -0.000006 -0.000013 -0.781368 5.839580 -68.182600 11.754300 -0.000000 0.000003 -0.000190 -0.001770 -16.644400 -2.192510 6.469440 -0.000001 174.091000 24.889300 -178.800000 -39.081100 -0.002282 -0.040193 -0.201737 0.350792 30.306600 -40.985400 0.000008 0.000006 4.460130 15.306400 -69.362100 -11.754300 -0.000006 -0.000006 -0.002455 -0.034278 -17.967000
0.000000 0.000000 0.000000 0.000000 0.000000 -0.000000 -1.861450 90.859700 -2.752270 88.685100 -1.322500 11.485000 15.735700 0.000005 -0.000001 89.401400 77.653800 -89.388200 8.984550 -0.406207 -0.000000 16.925100 -0.252684 0.064160 16.377300 -0.000001 -0.000001 7.872660 -3.171120 1.488330 6.456720 -0.000001 -0.000000 -7.467190 -2.928080 2.537220 12.994200 -0.242716 4.980390 -91.093100 6.114430 -79.844300 5.348090 -0.000007 -0.000001 -61.656200 30.204700 -25.290300 24.328600 0.000019 0.000005 13.313100 24.443500 -29.762900 22.291600 -0.000001 0.000005 9.977660 5.267820 0.957169 12.994500 -0.242716 -4.980390 89.045200 10.006100 -84.520900 -5.348130 -0.000001 -0.000004 -56.483800 35.727700 -23.486900 -24.328900 0.000322 -0.000009 2.873940 6.784760 -23.030000 -22.291500 -0.000108 -0.000004 18.730900 5.423280 -3.709780 -2.192480 -6.469440 -0.000000 -172.078000 -14.020900 -1.361500 39.081100 -0.000007 -0.000012 -0.180298 0.291549 31.733500 40.985400 -0.000006 -0.000013 -0.792421 5.858170 -68.169800 11.754300 -0.000000 0.000003 -0.000181 -0.001705 -16.642000 -2.192510 6.469440 -0.000001 174.105000 24.933400 -178.801000 -39.081100 -0.002282 -0.040193 -0.199514 0.346913 30.312100 -40.985400 0.000008 0.000006 4.463440 15.262200 -69.366100 -11.754300 -0.000006 -0.000006 -0.002424 -0.033900 -17.951600
0.000000 0.000000 0.000000 0.000000 0.000000 -0.000000 -1.874390 90.859000 -2.766300 88.677000 -1.284720 11.497700 15.735700 0.000005 -0.000001 89.433700 77.647200 -89.414200 8.984550 -0.406207 -0.000000 16.938600 -0.238617 0.074666 16.377300 -0.000001 -0.000001 7.941420 -3.220160 1.475730 6.456720 -0.000001 -0.000000 -7.484590 -2.988090 2.566200 12.994200 -0.242716 4.980390 -91.093300 6.082100 -79.789700 5.348090 -0.000007 -0.000001 -61.342600 29.932400 -25.564600 24.328600 0.000019 0.000005 14.113600 24.504300 -31.224700 22.291600 -0.000001 0.000005 10.074500 5.269210 0.919557 12.994500 -0.242716 -4.980390 89.035200 10.050400 -84.488300 -5.348130 -0.000001 -0.000004 -56.417000 35.720400 -23.506700 -24.328900 0.000322 -0.000009 2.837390 6.682580 -23.077200 -22.291500 -0.000108 -0.000004 18.756400 5.423350 -3.712060 -2.192480 -6.469440 -0.000000 -172.074000 -13.979000 -1.373530 39.081100 -0.000007 -0.000012 -0.178705 0.288854 31.744100 40.985400 -0.000006 -0.000013 -0.794996 5.861980 -68.160300 11.754300 -0.000000 0.000003 -0.000181 -0.001702 -16.641900 -2.192510 6.469440 -0.000001 174.111000 24.960600 -178.786000 -39.081100 -0.002282 -0.040193 -0.199093 0.346204 30.311200 -40.985400 0.000008 0.000006 4.470150 15.253400 -69.366200 -11.754300 -0.000006 -0.000006 -0.002312 -0.032562 -17.897200
0.000000 0.000000 0.000000 0.000000 0.000000 -0.000000 -1.892140 90.857200 -2.763980 88.706600 -1.279090 11.533400 15.735700 0.000005 -0.000001 89.495900 77.619600 -89.478200 8.984550 -0.406207 -0.000000 16.993800 -0.212837 0.067240 16.377300 -0.000001 -0.000001 7.952310 -3.271920 1.514970 6.456720 -0.000001 -0.000000 -7.538140 -3.022660 2.510030 12.994200 -0.242716 4.980390 -91.106000 6.115760 -79.728900 5.348090 -0.000007 -0.000001 -60.748600 29.732500 -25.999600 24.328600 0.000019 0.000005 14.656700 23.936000 -32.807100 22.291600 -0.000001 0.000005 10.271900 5.269670 0.907177 12.994500 -0.242716 -4.980390 89.035300 10.015300 -84.469400 -5.348130 -0.000001 -0.000004 -56.439800 35.638000 -23.580600 -24.328900 0.000322 -0.000009 2.868680 6.766280 -23.048200 -22.291500 -0.000108 -0.000004 18.758700 5.424730 -3.759040 -2.192480 -6.469440 -0.000000 -172.085000 -13.991000 -1.330250 39.081100 -0.000007 -0.000012 -0.175900 0.284447 31.732600 40.985400 -0.000006 -0.000013 -0.800436 5.873750 -68.152800 11.754300 -0.000000 0.000003 -0.000179 -0.001684 -16.641300 -2.192510 6.469440 -0.000001 174.082000 24.936600 -178.761000 -39.081100 -0.002282 -0.040193 -0.200178 0.347702 30.337000 -40.985400 0.000008 0.000006 4.475050 15.216000 -69.383900 -11.754300 -0.000006 -0.000006 -0.002507 -0.034892 -17.992000
0.000000 0.000000 0.000000 0.000000 0.000000 -0.000000 -1.905310 90.855700 -2.773870 88.690800 -1.225510 11.572800 15.735700 0.000005 -0.000001 89.485800 77.593900 -89.457200 8.984550 -0.406207 -0.000000 17.045300 -0.216660 0.089812 16.377300 -0.000001 -0.000001 7.959090 -3.278870 1.518950 6.456720 -0.000001 -0.000000 -7.555180 -3.048130 2.516130 12.994200 -0.242716 4.980390 -91.113500 6.125680 -79.677000 5.348090 -0.000007 -0.000001 -60.236800 29.323900 -26.476600 24.328600 0.000019 0.000005 15.294400 23.415800 -34.532900 22.291600 -0.000001 0.000005 10.373600 5.270590 0.882189 12.994500 -0.242716 -4.980390 89.031500 10.019100 -84.449900 -5.348130 -0.000001 -0.000004 -56.363500 35.609200 -23.652600 -24.328900 0.000322 -0.000009 2.805040 6.579840 -23.158800 -22.291500 -0.000108 -0.000004 18.590700 5.422160 -3.671950 -2.192480 -6.469440 -0.000000 -172.058000 -13.946300 -1.312800 39.081100 -0.000007 -0.000012 -0.177235 0.286445 31.747000 40.985400 -0.000006 -0.000013 -0.805791 5.889650 -68.148000 11.754300 -0.000000 0.000003 -0.000185 -0.001735 -16.643100 -2.192510 6.469440 -0.000001 174.085000 24.971300 -178.713000 -39.081100 -0.002282 -0.040193 -0.198896 0.345552 30.334000 -40.985400 0.000008 0.000006 4.483030 15.198500 -69.386100 -11.754300 -0.000006 -0.000006 -0.002433 -0.034008 -17.956000
